<svg width="90" height="89" viewBox="0 0 90 89" fill="none" xmlns="http://www.w3.org/2000/svg">
<g clip-path="url(#clip0)">
<path d="M89.9101 26.1608C89.6993 21.4329 88.926 18.1825 87.8182 15.3659C86.6754 12.3763 84.9172 9.69962 82.6138 7.47451C80.3632 5.21478 77.638 3.45886 74.6492 2.34665C71.7839 1.25141 68.5135 0.486848 63.7314 0.278393C58.9137 0.0522835 57.3842 0 45.165 0C32.9459 0 31.4164 0.0522835 26.6165 0.260739C21.8344 0.469194 18.5468 1.23444 15.6988 2.32899C12.6742 3.45886 9.9669 5.19712 7.71632 7.47451C5.43072 9.69962 3.65539 12.3939 2.52976 15.349C1.42199 18.1825 0.648671 21.4152 0.43783 26.1431C0.209132 30.9064 0.15625 32.4185 0.15625 44.4994C0.15625 56.5803 0.209132 58.0925 0.419973 62.838C0.630815 67.566 1.40482 70.8164 2.51259 73.6329C3.65539 76.6226 5.43072 79.2992 7.71632 81.5243C9.9669 83.7841 12.692 85.54 15.6809 86.6522C18.5468 87.7474 21.8166 88.512 26.5993 88.7204C31.3985 88.9296 32.9287 88.9812 45.1479 88.9812C57.3671 88.9812 58.8965 88.9296 63.6964 88.7204C68.4785 88.512 71.7661 87.7474 74.6142 86.6522C80.6626 84.3402 85.4447 79.6122 87.7832 73.6329C88.8902 70.7994 89.6642 67.566 89.8751 62.838C90.0859 58.0925 90.1388 56.5803 90.1388 44.4994C90.1388 32.4185 90.121 30.9064 89.9101 26.1608ZM81.8054 62.4904C81.6118 66.836 80.8735 69.1827 80.2581 70.7471C78.7458 74.6236 75.634 77.7001 71.7132 79.1953C70.1309 79.8037 67.7402 80.5337 63.362 80.7244C58.6149 80.9336 57.1912 80.9852 45.1829 80.9852C33.1746 80.9852 31.733 80.9336 27.0032 80.7244C22.6078 80.5337 20.2343 79.8037 18.6519 79.1953C16.7008 78.4824 14.9248 77.3525 13.4832 75.875C11.9888 74.4321 10.846 72.6938 10.1249 70.7648C9.5095 69.2003 8.77121 66.836 8.57823 62.508C8.3667 57.8147 8.31451 56.4065 8.31451 44.534C8.31451 32.6616 8.3667 31.2364 8.57823 26.5607C8.77121 22.2151 9.5095 19.8684 10.1249 18.304C10.846 16.3743 11.9888 14.619 13.5011 13.1931C14.9598 11.7156 16.7179 10.5857 18.6698 9.87344C20.2521 9.26505 22.6435 8.53512 27.021 8.34364C31.768 8.13519 33.1924 8.0829 45.2001 8.0829C57.2263 8.0829 58.65 8.13519 63.3798 8.34364C67.7752 8.53512 70.1487 9.26505 71.7311 9.87344C73.6822 10.5857 75.4582 11.7156 76.8998 13.1931C78.3942 14.636 79.537 16.3743 80.2581 18.304C80.8735 19.8684 81.6118 22.2321 81.8054 26.5607C82.0163 31.254 82.0691 32.6616 82.0691 44.534C82.0691 56.4065 82.0163 57.7971 81.8054 62.4904Z" fill="black"/>
<path d="M45.1666 21.6414C32.4028 21.6414 22.0469 31.8794 22.0469 44.4995C22.0469 57.1195 32.4028 67.3576 45.1666 67.3576C57.9311 67.3576 68.2864 57.1195 68.2864 44.4995C68.2864 31.8794 57.9311 21.6414 45.1666 21.6414ZM45.1666 59.3269C36.8861 59.3269 30.1694 52.6869 30.1694 44.4995C30.1694 36.312 36.8861 29.672 45.1666 29.672C53.4478 29.672 60.1638 36.312 60.1638 44.4995C60.1638 52.6869 53.4478 59.3269 45.1666 59.3269Z" fill="black"/>
<path d="M74.6002 20.7376C74.6002 23.6845 72.1834 26.0739 69.2021 26.0739C66.2215 26.0739 63.8047 23.6845 63.8047 20.7376C63.8047 17.79 66.2215 15.4012 69.2021 15.4012C72.1834 15.4012 74.6002 17.79 74.6002 20.7376Z" fill="black"/>
</g>
<defs>
<clipPath id="clip0">
<rect width="90" height="88.9814" fill="white"/>
</clipPath>
</defs>
</svg>
