<svg width="129" height="153" viewBox="0 0 129 153" fill="none" xmlns="http://www.w3.org/2000/svg">
<path d="M64.6164 32.9775C42.9615 32.9775 25.2695 50.6695 25.2695 72.3244C25.2695 83.6473 30.2233 94.5455 38.5739 101.905C44.8014 108.133 44.2353 121.437 44.0938 121.579C44.0938 122.287 44.2353 122.853 44.8014 123.419C45.2261 123.843 45.9337 124.126 46.4999 124.126H82.5915C83.2991 124.126 83.8653 123.843 84.2899 123.419C84.7145 122.994 84.9976 122.287 84.9976 121.579C84.9976 121.437 84.2899 108.133 90.5174 101.905C90.659 101.764 90.8005 101.622 90.942 101.481C99.1511 93.9794 103.963 83.3642 103.963 72.3244C103.963 50.6695 86.2714 32.9775 64.6164 32.9775ZM87.2621 98.2255C87.1206 98.367 86.8375 98.6501 86.8375 98.7916C81.3176 104.736 80.3269 114.502 80.1853 119.173H48.906C48.7644 114.502 47.7737 104.312 41.8292 98.2255C34.3278 91.7148 29.9402 82.2319 29.9402 72.1829C29.9402 53.0756 45.3676 37.6482 64.4749 37.6482C83.5822 37.6482 99.0096 53.0756 99.0096 72.1829C99.0096 82.2319 94.7635 91.7148 87.2621 98.2255Z" fill="#F8BF2D"/>
<path d="M64.4764 43.0269C63.2026 43.0269 62.0703 44.1591 62.0703 45.433C62.0703 46.7068 63.2026 47.8391 64.4764 47.8391C78.7715 47.8391 90.2359 59.445 90.2359 73.5985C90.2359 74.8724 91.3682 76.0047 92.642 76.0047C93.9158 76.0047 95.0481 74.8724 95.0481 73.5985C95.1896 56.7558 81.4607 43.0269 64.4764 43.0269Z" fill="#F8BF2D"/>
<path d="M80.1857 126.816H48.7648C45.5095 126.816 42.8203 129.505 42.8203 132.76C42.8203 136.016 45.5095 138.705 48.7648 138.705H80.0442C83.441 138.563 86.1302 136.016 86.1302 132.76C86.1302 129.505 83.441 126.816 80.1857 126.816ZM80.1857 133.751H48.7648C48.1987 133.751 47.6325 133.327 47.6325 132.619C47.6325 131.911 48.0571 131.487 48.7648 131.487H80.0442C80.6103 131.487 81.1765 131.911 81.1765 132.619C81.1765 133.327 80.7518 133.751 80.1857 133.751Z" fill="#F8BF2D"/>
<path d="M75.5162 141.111H53.4367C50.1814 141.111 47.4922 143.801 47.4922 147.056C47.4922 150.311 50.1814 153 53.4367 153H75.5162C78.7715 153 81.4607 150.311 81.4607 147.056C81.4607 143.659 78.7715 141.111 75.5162 141.111ZM75.5162 148.047H53.4367C52.8705 148.047 52.3044 147.622 52.3044 146.914C52.3044 146.207 52.729 145.782 53.4367 145.782H75.5162C76.0824 145.782 76.6485 146.207 76.6485 146.914C76.6485 147.622 76.0824 148.047 75.5162 148.047Z" fill="#F8BF2D"/>
<path d="M64.4764 21.2303C65.8918 21.2303 66.8825 20.0981 66.8825 18.8242V2.40611C66.8825 1.13229 65.7502 0 64.4764 0C63.2026 0 62.0703 1.13229 62.0703 2.40611V18.8242C62.0703 20.0981 63.2026 21.2303 64.4764 21.2303Z" fill="#F8BF2D"/>
<path d="M104.53 12.1721C103.398 11.3229 101.982 11.7475 101.275 12.7383L92.2164 26.3257C91.3672 27.458 91.6503 29.0149 92.7826 29.7225C93.2072 30.0056 93.6318 30.1471 94.0564 30.1471C94.9056 30.1471 95.6133 29.7225 96.0379 29.0149L105.096 15.4274C105.945 14.4367 105.662 12.8798 104.53 12.1721Z" fill="#F8BF2D"/>
<path d="M35.7411 29.5809C36.1657 29.5809 36.5903 29.4394 37.0149 29.1563C38.1472 28.4486 38.4303 26.8918 37.7226 25.7595L28.9474 12.0305C28.2397 10.8982 26.6828 10.6152 25.5505 11.3228C24.4182 12.0305 24.1352 13.5874 24.8429 14.7197L33.6181 28.4486C34.1842 29.2979 34.8919 29.5809 35.7411 29.5809Z" fill="#F8BF2D"/>
<path d="M18.6179 44.5835L4.32279 36.799C3.19051 36.2328 1.63362 36.6575 1.06748 37.7897C0.359797 38.922 0.784404 40.4789 2.05822 41.0451L16.3533 48.8295C16.7779 48.9711 17.061 49.1126 17.4856 49.1126C18.3348 49.1126 19.184 48.688 19.6086 47.8388C20.1748 46.7065 19.7502 45.1496 18.6179 44.5835Z" fill="#F8BF2D"/>
<path d="M128.026 37.7897C127.46 36.6575 125.903 36.2328 124.771 36.799L110.334 44.5835C109.202 45.1496 108.777 46.7065 109.343 47.8388C109.768 48.688 110.617 49.1126 111.466 49.1126C111.891 49.1126 112.316 48.9711 112.599 48.8295L127.035 41.0451C128.168 40.4789 128.592 38.922 128.026 37.7897Z" fill="#F8BF2D"/>
</svg>
