<svg width="348" height="322" viewBox="0 0 348 322" fill="none" xmlns="http://www.w3.org/2000/svg">
<path d="M280.838 0.053772C269.765 0.053772 79.3882 0.053772 67.1818 0.053772L0 91.6648L174.722 321.946L348.001 91.6383L280.838 0.053772ZM95.5174 101.729L144.743 248.793L33.1611 101.729H95.5174ZM116.962 101.729H231.118L174.432 273.423L116.962 101.729ZM252.534 101.729H314.961L203.718 249.584L252.534 101.729ZM270.532 20.3889L315.269 81.3942H252.547L232.53 20.3889H270.532ZM211.128 20.3889L231.145 81.3942H116.874L136.891 20.3889H211.128ZM77.4862 20.3889H115.488L95.4713 81.3942H32.749L77.4862 20.3889Z" fill="white"/>
</svg>
