<svg width="86" height="86" viewBox="0 0 86 86" fill="none" xmlns="http://www.w3.org/2000/svg">
<path d="M62.008 29.3558C63.3203 30.6681 63.3203 32.7952 62.008 34.1068L39.4713 56.6442C38.1591 57.9558 36.0326 57.9558 34.7203 56.6442L23.992 45.9152C22.6797 44.6036 22.6797 42.4764 23.992 41.1648C25.3036 39.8526 27.4307 39.8526 28.7423 41.1648L37.0955 49.518L57.257 29.3558C58.5693 28.0442 60.6964 28.0442 62.008 29.3558ZM86 43C86 66.7682 66.765 86 43 86C19.2318 86 0 66.765 0 43C0 19.2318 19.235 0 43 0C66.7682 0 86 19.235 86 43ZM79.2812 43C79.2812 22.9454 63.0519 6.71875 43 6.71875C22.9454 6.71875 6.71875 22.9481 6.71875 43C6.71875 63.0546 22.9481 79.2812 43 79.2812C63.0546 79.2812 79.2812 63.0519 79.2812 43Z" fill="#4CB9E0"/>
</svg>
