<svg width="980" height="316" viewBox="0 0 980 316" fill="none" xmlns="http://www.w3.org/2000/svg">
<path fill-rule="evenodd" clip-rule="evenodd" d="M0 291L979.587 291L878.381 0L0 7.67905e-05V291Z" fill="#F8E22D"/>
<path fill-rule="evenodd" clip-rule="evenodd" d="M0 316L952.589 316L851.383 25L0 25.0001V316Z" fill="#12A9D8"/>
<path d="M289.128 119.152C282.28 119.152 276.072 117.68 270.504 114.736C265 111.728 260.648 107.6 257.448 102.352C254.312 97.04 252.744 91.056 252.744 84.4C252.744 77.744 254.312 71.792 257.448 66.544C260.648 61.232 265 57.104 270.504 54.16C276.072 51.152 282.312 49.648 289.224 49.648C295.048 49.648 300.296 50.672 304.968 52.72C309.704 54.768 313.672 57.712 316.872 61.552L306.888 70.768C302.344 65.52 296.712 62.896 289.992 62.896C285.832 62.896 282.12 63.824 278.856 65.68C275.592 67.472 273.032 70 271.176 73.264C269.384 76.528 268.488 80.24 268.488 84.4C268.488 88.56 269.384 92.272 271.176 95.536C273.032 98.8 275.592 101.36 278.856 103.216C282.12 105.008 285.832 105.904 289.992 105.904C296.712 105.904 302.344 103.248 306.888 97.936L316.872 107.152C313.672 111.056 309.704 114.032 304.968 116.08C300.232 118.128 294.952 119.152 289.128 119.152ZM382.057 105.712V129.136H368.137V118H331.849V129.136H317.929V105.712H320.041C323.241 105.648 325.449 103.76 326.665 100.048C327.881 96.336 328.649 91.056 328.969 84.208L329.641 66.352H374.665V105.712H382.057ZM342.505 85.264C342.313 90.512 341.897 94.8 341.257 98.128C340.681 101.456 339.561 103.984 337.897 105.712H359.689V78.64H342.793L342.505 85.264ZM441.689 92.368C441.689 92.56 441.593 93.904 441.401 96.4H402.329C403.033 99.6 404.697 102.128 407.321 103.984C409.945 105.84 413.209 106.768 417.113 106.768C419.801 106.768 422.169 106.384 424.217 105.616C426.329 104.784 428.281 103.504 430.073 101.776L438.041 110.416C433.177 115.984 426.073 118.768 416.729 118.768C410.905 118.768 405.753 117.648 401.273 115.408C396.793 113.104 393.337 109.936 390.905 105.904C388.473 101.872 387.257 97.296 387.257 92.176C387.257 87.12 388.441 82.576 390.809 78.544C393.241 74.448 396.537 71.28 400.697 69.04C404.921 66.736 409.625 65.584 414.809 65.584C419.865 65.584 424.441 66.672 428.537 68.848C432.633 71.024 435.833 74.16 438.137 78.256C440.505 82.288 441.689 86.992 441.689 92.368ZM414.905 76.912C411.513 76.912 408.665 77.872 406.361 79.792C404.057 81.712 402.649 84.336 402.137 87.664H427.577C427.065 84.4 425.657 81.808 423.353 79.888C421.049 77.904 418.233 76.912 414.905 76.912ZM502.236 66.352V118H487.26V78.64H470.94L470.46 87.76C470.204 94.544 469.564 100.176 468.54 104.656C467.516 109.136 465.852 112.656 463.548 115.216C461.244 117.776 458.044 119.056 453.948 119.056C451.772 119.056 449.18 118.672 446.172 117.904L446.94 105.616C447.964 105.744 448.7 105.808 449.148 105.808C451.388 105.808 453.052 105.008 454.14 103.408C455.292 101.744 456.06 99.664 456.444 97.168C456.828 94.608 457.116 91.248 457.308 87.088L458.076 66.352H502.236ZM536.702 65.584C544.702 65.584 550.846 67.504 555.134 71.344C559.422 75.12 561.566 80.848 561.566 88.528V118H547.55V111.568C544.734 116.368 539.486 118.768 531.806 118.768C527.838 118.768 524.382 118.096 521.438 116.752C518.558 115.408 516.35 113.552 514.814 111.184C513.278 108.816 512.51 106.128 512.51 103.12C512.51 98.32 514.302 94.544 517.886 91.792C521.534 89.04 527.134 87.664 534.686 87.664H546.59C546.59 84.4 545.598 81.904 543.614 80.176C541.63 78.384 538.654 77.488 534.686 77.488C531.934 77.488 529.214 77.936 526.526 78.832C523.902 79.664 521.662 80.816 519.806 82.288L514.43 71.824C517.246 69.84 520.606 68.304 524.51 67.216C528.478 66.128 532.542 65.584 536.702 65.584ZM535.55 108.688C538.11 108.688 540.382 108.112 542.366 106.96C544.35 105.744 545.758 103.984 546.59 101.68V96.4H536.318C530.174 96.4 527.102 98.416 527.102 102.448C527.102 104.368 527.838 105.904 529.31 107.056C530.846 108.144 532.926 108.688 535.55 108.688ZM574.575 66.352H589.455V86.512H611.919V66.352H626.895V118H611.919V98.704H589.455V118H574.575V66.352ZM665.423 118.768C659.983 118.768 655.087 117.648 650.735 115.408C646.447 113.104 643.087 109.936 640.655 105.904C638.223 101.872 637.007 97.296 637.007 92.176C637.007 87.056 638.223 82.48 640.655 78.448C643.087 74.416 646.447 71.28 650.735 69.04C655.087 66.736 659.983 65.584 665.423 65.584C670.863 65.584 675.727 66.736 680.015 69.04C684.303 71.28 687.663 74.416 690.095 78.448C692.527 82.48 693.743 87.056 693.743 92.176C693.743 97.296 692.527 101.872 690.095 105.904C687.663 109.936 684.303 113.104 680.015 115.408C675.727 117.648 670.863 118.768 665.423 118.768ZM665.423 106.48C669.263 106.48 672.399 105.2 674.831 102.64C677.327 100.016 678.575 96.528 678.575 92.176C678.575 87.824 677.327 84.368 674.831 81.808C672.399 79.184 669.263 77.872 665.423 77.872C661.583 77.872 658.415 79.184 655.919 81.808C653.423 84.368 652.175 87.824 652.175 92.176C652.175 96.528 653.423 100.016 655.919 102.64C658.415 105.2 661.583 106.48 665.423 106.48ZM295.656 208.024C301.736 210.072 304.776 214.168 304.776 220.312C304.776 224.984 303.016 228.6 299.496 231.16C295.976 233.72 290.728 235 283.752 235H256.2V183.352H282.6C289.064 183.352 294.12 184.536 297.768 186.904C301.416 189.208 303.24 192.472 303.24 196.696C303.24 199.256 302.568 201.528 301.224 203.512C299.944 205.432 298.088 206.936 295.656 208.024ZM269.928 204.568H281.256C286.504 204.568 289.128 202.712 289.128 199C289.128 195.352 286.504 193.528 281.256 193.528H269.928V204.568ZM282.504 224.824C288.008 224.824 290.76 222.936 290.76 219.16C290.76 217.176 290.12 215.736 288.84 214.84C287.56 213.88 285.544 213.4 282.792 213.4H269.928V224.824H282.504ZM368.354 208.6L359.33 218.008V235H343.874V167.8H359.33V199.192L389.09 167.8H406.37L378.53 197.752L408.002 235H389.858L368.354 208.6ZM469.369 222.328V235H410.617V224.92L447.481 180.472H411.385V167.8H467.929V177.88L431.161 222.328H469.369Z" fill="white"/>
</svg>
