<svg width="329" height="329" viewBox="0 0 329 329" fill="none" xmlns="http://www.w3.org/2000/svg">
<g clip-path="url(#clip0)">
<path d="M164.5 0C131.965 0 100.161 9.64776 73.1088 27.7232C46.0569 45.7987 24.9725 71.4901 12.5219 101.549C0.0712747 131.607 -3.18637 164.682 3.1609 196.592C9.50816 228.502 25.1753 257.813 48.181 280.819C71.1867 303.825 100.498 319.492 132.408 325.839C164.318 332.186 197.393 328.929 227.451 316.478C257.51 304.028 283.201 282.943 301.277 255.891C319.352 228.839 329 197.035 329 164.5C328.95 120.887 311.603 79.0748 280.764 48.2358C249.925 17.3968 208.113 0.049661 164.5 0V0ZM320.004 164.5C320.004 182.492 256.139 202.541 164.5 202.541C151.602 202.541 139.28 202.132 127.585 201.399C126.853 189.702 126.441 177.38 126.441 164.482C126.441 72.8529 146.508 8.99609 164.5 8.99609C205.728 9.04303 245.254 25.4415 274.406 54.594C303.559 83.7464 319.957 123.272 320.004 164.5ZM147.536 9.93169C132.582 28.6693 122.961 71.6912 119.224 119.17C109.763 119.905 100.515 120.864 91.7217 122.049C90.5929 122.202 89.5644 122.779 88.844 123.661C88.1236 124.544 87.7648 125.667 87.8402 126.803C87.9156 127.94 88.4194 129.006 89.2501 129.785C90.0807 130.565 91.1762 131 92.3154 131.004C92.5174 131.003 92.7191 130.991 92.9194 130.965C101.144 129.857 109.768 128.953 118.597 128.243C117.849 140.236 117.463 152.422 117.463 164.485C117.463 176.547 117.849 188.764 118.597 200.765C52.234 195.49 8.99617 179.3 8.99617 164.5C9.04444 126.21 23.1993 89.2793 48.7559 60.7658C74.3126 32.2524 109.479 14.155 147.536 9.93169ZM9.93947 181.464C28.6822 196.423 71.7221 206.044 119.211 209.779C122.946 257.27 132.577 300.308 147.526 319.05C112.38 315.141 79.6109 299.389 54.606 274.384C29.6011 249.379 13.8489 216.61 9.93947 181.464ZM164.5 320.004C149.693 320.004 133.505 276.766 128.223 210.421C140.223 211.172 152.417 211.555 164.5 211.555C176.583 211.555 188.759 211.172 200.741 210.424C199.999 219.638 199.045 228.627 197.873 237.155C197.792 237.741 197.828 238.337 197.978 238.91C198.129 239.482 198.39 240.019 198.748 240.49C199.107 240.961 199.554 241.356 200.066 241.654C200.577 241.951 201.142 242.145 201.728 242.224C201.934 242.251 202.141 242.265 202.348 242.265C203.434 242.264 204.482 241.871 205.3 241.157C206.118 240.443 206.65 239.457 206.797 238.381C208.051 229.262 209.062 219.646 209.83 209.784C257.304 206.047 300.326 196.418 319.068 181.472C314.843 219.527 296.745 254.692 268.232 280.247C239.719 305.802 202.789 319.956 164.5 320.004Z" fill="white"/>
<path d="M32.3508 144.994C32.9093 144.993 33.4627 144.888 33.983 144.685C43.3997 141.148 53.0679 138.321 62.9067 136.227C64.0714 135.968 65.0854 135.256 65.7258 134.25C66.3662 133.243 66.5804 132.023 66.3214 130.858C66.0623 129.694 65.3512 128.68 64.3445 128.039C63.3378 127.399 62.1179 127.185 60.9533 127.444C50.6682 129.64 40.5619 132.603 30.7187 136.306C29.7419 136.688 28.929 137.398 28.4204 138.315C27.9117 139.232 27.7393 140.298 27.9328 141.329C28.1263 142.36 28.6736 143.29 29.4802 143.96C30.2869 144.63 31.3022 144.998 32.3508 144.999V144.994Z" fill="white"/>
<path d="M275.134 138.393C281.878 140.108 288.518 142.209 295.021 144.685C296.129 145.102 297.357 145.065 298.439 144.582C299.52 144.099 300.367 143.209 300.796 142.105C301.225 141.001 301.201 139.772 300.73 138.686C300.259 137.599 299.379 136.742 298.28 136.301C291.451 133.695 284.477 131.486 277.394 129.685C276.239 129.386 275.012 129.557 273.984 130.162C272.955 130.766 272.209 131.755 271.91 132.91C271.61 134.064 271.782 135.291 272.386 136.319C272.991 137.348 273.979 138.094 275.134 138.393Z" fill="white"/>
<path d="M149.305 122.108C149.326 123.287 149.808 124.411 150.649 125.238C151.49 126.065 152.622 126.528 153.801 126.529H153.881C163.969 126.354 174.384 126.431 184.496 126.768H184.65C185.24 126.777 185.827 126.671 186.377 126.453C186.926 126.236 187.427 125.913 187.852 125.502C188.276 125.091 188.616 124.601 188.851 124.059C189.086 123.517 189.211 122.934 189.221 122.343C189.231 121.752 189.124 121.166 188.907 120.616C188.69 120.067 188.366 119.565 187.955 119.141C187.545 118.717 187.054 118.377 186.512 118.142C185.97 117.907 185.387 117.781 184.796 117.772C174.536 117.43 163.977 117.353 153.726 117.53C153.135 117.54 152.552 117.667 152.01 117.902C151.468 118.138 150.978 118.478 150.567 118.903C150.157 119.328 149.834 119.83 149.617 120.38C149.401 120.93 149.295 121.517 149.305 122.108Z" fill="white"/>
<path d="M215.036 128.618C225.575 129.559 235.779 130.803 245.351 132.315C245.584 132.352 245.821 132.371 246.057 132.371C247.19 132.371 248.281 131.943 249.112 131.174C249.943 130.405 250.454 129.35 250.541 128.221C250.629 127.092 250.287 125.971 249.585 125.083C248.882 124.195 247.87 123.604 246.751 123.429C236.984 121.887 226.574 120.617 215.83 119.658C215.239 119.6 214.642 119.659 214.074 119.833C213.505 120.007 212.977 120.291 212.52 120.67C212.062 121.05 211.684 121.515 211.407 122.041C211.131 122.567 210.961 123.143 210.908 123.735C210.856 124.327 210.921 124.923 211.1 125.49C211.279 126.057 211.568 126.582 211.952 127.036C212.335 127.49 212.804 127.864 213.333 128.135C213.862 128.407 214.439 128.571 215.031 128.618H215.036Z" fill="white"/>
<path d="M202.261 145.575C202.459 151.774 202.559 158.138 202.559 164.492C202.559 168.433 202.522 172.331 202.446 176.185C202.423 177.377 202.874 178.53 203.701 179.39C204.528 180.25 205.662 180.746 206.854 180.77H206.947C208.124 180.769 209.254 180.307 210.095 179.482C210.935 178.657 211.419 177.536 211.442 176.359C211.516 172.439 211.554 168.483 211.556 164.492C211.556 158.046 211.455 151.584 211.252 145.287C211.214 144.094 210.704 142.965 209.833 142.148C208.963 141.332 207.803 140.895 206.61 140.933C205.417 140.971 204.288 141.481 203.472 142.352C202.655 143.223 202.218 144.382 202.256 145.575H202.261Z" fill="white"/>
<path d="M197.913 263.735C196.75 263.472 195.529 263.682 194.521 264.319C193.512 264.956 192.797 265.967 192.533 267.13C190.475 276.612 187.726 285.931 184.308 295.013C184.087 295.565 183.977 296.155 183.985 296.75C183.993 297.345 184.119 297.932 184.355 298.478C184.592 299.024 184.935 299.518 185.363 299.93C185.792 300.343 186.298 300.666 186.853 300.882C187.407 301.097 187.999 301.201 188.594 301.186C189.188 301.171 189.774 301.039 190.318 300.796C190.861 300.553 191.35 300.205 191.758 299.772C192.166 299.339 192.483 298.829 192.693 298.272C196.273 288.775 199.154 279.029 201.311 269.112C201.573 267.948 201.363 266.728 200.726 265.719C200.088 264.711 199.077 263.997 197.913 263.735Z" fill="white"/>
<path d="M195.713 77.8162C196.962 84.99 198.062 92.6109 198.982 100.463C199.11 101.557 199.635 102.566 200.458 103.299C201.28 104.031 202.343 104.436 203.444 104.437C203.621 104.437 203.798 104.427 203.974 104.406C205.159 104.267 206.24 103.663 206.98 102.727C207.72 101.791 208.057 100.6 207.919 99.4146C206.976 91.3978 205.863 83.6123 204.578 76.2817C204.482 75.6949 204.271 75.133 203.956 74.6284C203.642 74.1237 203.23 73.6865 202.746 73.3418C202.261 72.9972 201.713 72.7521 201.133 72.6206C200.553 72.4891 199.953 72.4739 199.368 72.5758C198.782 72.6777 198.222 72.8948 197.721 73.2144C197.219 73.5341 196.786 73.9499 196.447 74.438C196.107 74.926 195.868 75.4766 195.742 76.0577C195.616 76.6389 195.607 77.2392 195.715 77.8239L195.713 77.8162Z" fill="white"/>
<path d="M191.02 55.5187C191.334 56.6511 192.078 57.6157 193.094 58.2065C194.11 58.7972 195.316 58.9673 196.456 58.6803C197.595 58.3934 198.577 57.6721 199.192 56.6707C199.807 55.6693 200.006 54.4671 199.746 53.3211C197.857 45.6498 195.501 38.1013 192.69 30.7178C192.258 29.6059 191.401 28.7115 190.309 28.2311C189.217 27.7508 187.979 27.7239 186.867 28.1565C185.756 28.589 184.861 29.4455 184.381 30.5375C183.9 31.6295 183.874 32.8677 184.306 33.9795C186.982 41.0153 189.224 48.2085 191.02 55.5187Z" fill="white"/>
</g>
<defs>
<clipPath id="clip0">
<rect width="329" height="329" fill="white"/>
</clipPath>
</defs>
</svg>
